<svg width="57" height="38" fill="none" xmlns="http://www.w3.org/2000/svg"><rect x=".356" y=".429" width="56.222" height="37.143" rx="2.811" fill="#EDEDED"/><path d="M49.55 19.966v-1.953h-3.104v-3.299h-2.224v3.299h-3.105v1.953h3.105v3.32h2.224v-3.32h3.105zM17.275 9c1.104 0 2.121.127 3.051.38.93.235 1.734.597 2.412 1.085a4.931 4.931 0 011.57 1.737c.387.688.58 1.466.58 2.334a6.592 6.592 0 01-.697 2.958c-.446.94-1.104 1.854-1.976 2.74-.852.887-1.899 1.756-3.139 2.606a49.777 49.777 0 01-4.184 2.497h10.084V29H8.789v-3.663a630.7 630.7 0 014.156-2.796 47.398 47.398 0 003.603-2.686c1.066-.887 1.918-1.746 2.558-2.578.639-.832.958-1.656.958-2.47 0-.85-.29-1.474-.871-1.872-.582-.416-1.27-.624-2.064-.624-.426 0-.852.072-1.278.217a2.843 2.843 0 00-1.105.651c-.31.308-.561.733-.755 1.276-.194.524-.271 1.175-.232 1.953H9.021c-.04-1.157.135-2.198.523-3.12a6.48 6.48 0 011.714-2.334c.736-.633 1.618-1.113 2.645-1.438C14.93 9.172 16.054 9 17.274 9zm14.86 20V15.784H27.34v-3.283c.872-.018 1.627-.09 2.266-.217.66-.145 1.22-.344 1.686-.597.465-.254.852-.57 1.162-.95.31-.398.581-.869.814-1.411h3.633V29h-4.766z" fill="#00003D"/></svg>