<svg width="86" height="40" fill="none" xmlns="http://www.w3.org/2000/svg"><path fill-rule="evenodd" clip-rule="evenodd" d="M19.63 0c.036.35.052.703.047 1.056a7.575 7.575 0 01-2.139 4.813c-.577.609-1.217 1.143-2.004 1.457-.673.27-1.378.323-2.087.375l-.01.001h-.002a.024.024 0 01-.006-.002.054.054 0 01-.006-.003l-.008-.005-.011-.008C13.505 3.526 15.592.837 19.631 0zm6.266 10.31l-.254.233c-.238.218-.476.436-.71.659-1.124 1.068-1.968 2.31-2.265 3.858a7.249 7.249 0 001.321 5.876c.648.882 1.42 1.615 2.448 2.038a6.2 6.2 0 00.224.087l.165.063-.07.194-.052.146-.01.028-.012.032c-.08.229-.16.454-.252.676-.837 2.038-1.926 3.924-3.412 5.56a8.287 8.287 0 01-.907.84c-1.082.882-2.3 1.222-3.672.814-.685-.2-1.36-.426-2.042-.637a7.838 7.838 0 00-2.15-.407c-.918-.022-1.759.254-2.61.566a17.25 17.25 0 01-1.954.643c-1.045.251-1.992-.072-2.857-.662a8.517 8.517 0 01-2.164-2.235 22.91 22.91 0 01-3.347-7.025 16.375 16.375 0 01-.448-6.875c.306-2.048 1.066-3.895 2.497-5.422 1.487-1.582 3.32-2.233 5.465-2.018 1.068.106 2.088.417 3.11.716.19.056.38.105.573.152l.148.037.155.037a53.03 53.03 0 01.417.103 3.388 3.388 0 001.822-.091c.442-.13.88-.27 1.319-.408h.002c.397-.126.792-.252 1.189-.37a7.859 7.859 0 013.803-.228c1.666.324 2.983 1.223 4.085 2.484.136.158.27.318.406.478a.397.397 0 01.04.059zm15.47-5.88c-2.202-.013-4.4.16-6.572.514v26.324h3.423V20.597c.787.197 1.73.236 2.753.236 3.345 0 6.294-.99 8.108-2.929 1.337-1.383 2.046-3.281 2.046-5.691 0-2.368-.866-4.306-2.32-5.57-1.578-1.423-4.058-2.214-7.439-2.214zm-.317 13.629c-1.14 0-2.086-.073-2.832-.272V7.424c.59-.154 1.73-.272 3.225-.272 3.777 0 6.255 1.698 6.255 5.216 0 3.676-2.518 5.691-6.648 5.691zm22.42 13.206l-.27-2.411h-.119c-1.063 1.502-3.11 2.846-5.823 2.846-3.854 0-5.822-2.727-5.822-5.494 0-4.62 4.092-7.154 11.448-7.114v-.396c0-1.58-.433-4.426-4.328-4.426-1.77 0-3.619.554-4.956 1.424l-.787-2.292c1.574-1.029 3.855-1.7 6.255-1.7 5.823 0 7.239 3.992 7.239 7.824v7.15c0 1.66.078 3.28.314 4.585l-3.151.004zm-.512-9.762c-3.776-.079-8.064.593-8.064 4.307 0 2.253 1.494 3.32 3.266 3.32 2.478 0 4.057-1.58 4.598-3.2.122-.357.188-.73.196-1.107l.004-3.32zm12.113 1.938L70.9 12.138h-3.776l7.035 17.62c.159.435.237.711.237.91 0 .198-.112.474-.27.83a10.55 10.55 0 01-2.91 3.873 9.165 9.165 0 01-3.03 1.705L69.05 40c.867-.158 2.558-.75 4.248-2.253 2.362-2.057 4.052-5.414 6.531-11.975l5.193-13.634h-3.658l-3.783 11.224c-.305.9-.578 1.833-.83 2.69-.134.462-.263.9-.387 1.302h-.078a70.079 70.079 0 00-1.217-3.913z" fill="#fff"/></svg>