<svg width="169" height="56" fill="none" xmlns="http://www.w3.org/2000/svg"><rect x="1.006" y=".703" width="166.594" height="54.594" rx="6.325" stroke="#EDEDED" stroke-width="1.406"/><path d="M34.277 28.412h0v.01a7.398 7.398 0 003.928 6.525 14.641 14.641 0 01-1.838 3.557l-.005.008-.005.007c-.63.943-1.23 1.802-1.908 2.435-.663.619-1.353.976-2.168.99h-.005c-.838.019-1.387-.215-2.093-.515l-.017-.008c-.734-.312-1.593-.67-2.901-.67-1.31 0-2.178.331-2.927.644l-.144.06c-.667.28-1.199.504-1.968.536-.722.026-1.421-.332-2.148-1.014-.728-.683-1.392-1.604-2.045-2.538-1.24-1.813-2.354-4.388-2.827-7.069-.474-2.688-.29-5.396.952-7.547h0l.006-.01a6.738 6.738 0 015.666-3.457c.838-.017 1.678.267 2.536.606l.32.128c.312.125.63.253.924.354.396.136.83.253 1.253.253.434 0 .902-.144 1.325-.296.23-.084.505-.192.782-.302.212-.084.426-.169.623-.243.998-.377 2.024-.675 3.025-.57l.026.003.026.001a6.389 6.389 0 014.595 2.164 7.631 7.631 0 00-2.988 5.958zm-3.661-11.766h0l-.007.01a5.036 5.036 0 01-3.286 1.839 5.788 5.788 0 011.431-3.499h0a6.238 6.238 0 013.272-1.96 6.119 6.119 0 01-1.41 3.61zM60.192 37.77l-.161-.477h-7.635l-.162.477-1.43 4.222h-1.302l5.77-15.98H57.2l5.77 15.98h-1.35l-1.429-4.222zM52.92 35.6l-.315.93h7.214l-.315-.929-2.59-7.626-.161-.477h-1.08l-.162.477-2.59 7.626zm19.317 6.525h-.018l-.018.001a3.594 3.594 0 01-3.336-1.855l-.03-.054a3.657 3.657 0 002.668 1.109c1.225 0 2.267-.516 2.986-1.43.707-.897 1.067-2.13 1.067-3.538 0-1.397-.36-2.626-1.067-3.523-.718-.912-1.759-1.433-2.986-1.433a3.671 3.671 0 00-2.938 1.418l.197-.34a3.794 3.794 0 013.405-1.89h.023c1.407 0 2.54.55 3.333 1.508.804.971 1.301 2.418 1.301 4.26 0 1.85-.495 3.297-1.291 4.266-.787.957-1.907 1.501-3.296 1.501zm-3.696-2.244l.022.027h-1.076v6.278H66.29V30.723h1.113v2.108h1.154l-.016.02c-.7.898-1.065 2.125-1.065 3.508 0 1.392.364 2.623 1.065 3.522zm17.647 2.244h-.019l-.018.001a3.594 3.594 0 01-3.336-1.855l-.03-.054a3.657 3.657 0 002.669 1.109c1.225 0 2.266-.516 2.985-1.43.707-.897 1.067-2.13 1.067-3.538v-.702h-.032c-.102-1.106-.45-2.078-1.035-2.821-.718-.912-1.759-1.433-2.985-1.433a3.671 3.671 0 00-2.938 1.418l.196-.34a3.794 3.794 0 013.405-1.89h.023c1.408 0 2.54.55 3.334 1.508.803.971 1.3 2.418 1.3 4.26 0 1.85-.494 3.297-1.291 4.266-.787.957-1.907 1.501-3.295 1.501zm-3.697-2.244l.022.027h-1.076v6.278H80.24V30.723h1.113v2.108h1.154l-.016.02c-.7.898-1.065 2.125-1.065 3.508 0 1.392.364 2.623 1.066 3.522zm16.339-1.327a4.15 4.15 0 001.563 2.486c1.002.774 2.454 1.242 4.267 1.242 1.953 0 3.461-.484 4.466-1.275.986-.776 1.542-1.891 1.542-3.312 0-1.118-.317-1.914-.97-2.54-.683-.654-1.802-1.185-3.538-1.596h-.005 0l-1.916-.471h-.001c-1.147-.284-2.056-.632-2.687-1.132-.676-.536-1.004-1.226-1.004-2.057 0-1.013.481-1.866 1.265-2.445.769-.567 1.809-.86 2.968-.86s2.201.29 2.991.881a3.438 3.438 0 011.285 1.902h1.257a4.027 4.027 0 00-1.454-2.406c-.951-.77-2.333-1.248-4.042-1.248-1.731 0-3.149.48-4.117 1.252-.957.762-1.506 1.828-1.506 3.105 0 1.052.314 1.844.935 2.467.642.644 1.669 1.166 3.201 1.536l-4.5 4.47zm0 0h1.293c.544 1.837 2.499 2.856 4.729 2.856 1.211 0 2.305-.312 3.117-.891.821-.587 1.357-1.458 1.357-2.499 0-.873-.323-1.611-1.006-2.19-.644-.545-1.571-.917-2.734-1.203l-.003-.001-2.253-.543-4.5 4.47zm15.545-7.177h-1.14v-.655h1.843v-3h1.208v3h2.411v.655h-2.411v7.69c0 .631.139 1.243.571 1.691.438.453 1.045.603 1.674.603v0h.013c.047 0 .094-.002.14-.003v.678a6.443 6.443 0 01-.729.028h0-.013c-1.223 0-1.886-.235-2.259-.593-.365-.351-.605-.969-.605-2.126v-7.968h-.703zm16.469 5.683h.027v-.703c0-1.463-.334-2.722-1.038-3.63-.721-.933-1.774-1.423-3.027-1.423-1.255 0-2.307.495-3.027 1.428-.702.91-1.036 2.167-1.036 3.626 0 1.468.333 2.727 1.037 3.635.721.93 1.775 1.416 3.026 1.416s2.305-.485 3.027-1.416c.589-.76.919-1.765 1.011-2.933zm-9.347-.703c0-1.857.546-3.296 1.445-4.264.894-.962 2.2-1.527 3.864-1.527 1.671 0 2.977.565 3.869 1.527.898.967 1.441 2.406 1.441 4.264 0 1.866-.541 3.304-1.436 4.27-.89.959-2.195 1.522-3.874 1.522-1.678 0-2.983-.563-3.873-1.523-.895-.965-1.436-2.403-1.436-4.268zm15.365-1.142v6.777h-1.196v-11.27h1.076v2.158h.773a3.316 3.316 0 00-.653 2.335zm3.694-4.625c.062 0 .125.002.187.005v.977a4.366 4.366 0 00-.463-.014 3.327 3.327 0 00-2.043.618 2.319 2.319 0 012.29-1.586h.029zm11.959 9.084c-.625 1.443-2.29 2.475-4.53 2.475-1.681 0-2.976-.558-3.856-1.506-.885-.954-1.417-2.377-1.417-4.225 0-1.855.535-3.314 1.417-4.3.874-.978 2.143-1.552 3.746-1.552 1.585 0 2.814.54 3.653 1.457.844.923 1.357 2.303 1.357 4.092v.19h-8.953v.83a4.006 4.006 0 004.093 4.323 3.574 3.574 0 003.385-1.784h1.105zm-8.508-5.188h-.062v.704l.702-.002v.702h7.002l.037-.663a3.752 3.752 0 00-3.816-3.96 3.914 3.914 0 00-3.863 3.218z" fill="#EDEDED" stroke="#EDEDED" stroke-width="1.406"/><mask id="a" fill="#fff"><path d="M53.259 12.224a3.695 3.695 0 013.93 4.15c0 2.67-1.442 4.203-3.93 4.203h-3.017v-8.353h3.017zm-1.72 7.172h1.575a2.627 2.627 0 002.755-3.005 2.632 2.632 0 00-2.755-2.987h-1.575v5.992z"/></mask><path d="M53.259 12.224a3.695 3.695 0 013.93 4.15c0 2.67-1.442 4.203-3.93 4.203h-3.017v-8.353h3.017zm-1.72 7.172h1.575a2.627 2.627 0 002.755-3.005 2.632 2.632 0 00-2.755-2.987h-1.575v5.992z" fill="#EDEDED"/><path d="M53.259 12.224v1.405h.05l.05-.003-.1-1.402zm3.93 4.15l-1.394-.176-.011.088v.088h1.406zm-6.947 4.203h-1.406v1.406h1.406v-1.406zm0-8.353v-1.406h-1.406v1.406h1.406zm1.297 7.172h-1.406V20.8h1.406v-1.405zm1.575 0l.084-1.403-.042-.003h-.042v1.406zm2.755-3.005l-1.393-.19-.027.197.03.198 1.39-.205zm-2.755-2.987v1.406h.039l.039-.003-.078-1.403zm-1.575 0V12h-1.406v1.405h1.406zm1.82.222c.338-.025.678.026.993.149l1.018-2.62a5.102 5.102 0 00-2.212-.333l.201 2.804zm.993.149c.316.123.601.314.834.56l2.041-1.933a5.101 5.101 0 00-1.857-1.247l-1.017 2.62zm.834.56c.233.246.408.54.514.863l2.672-.874a5.103 5.103 0 00-1.145-1.922l-2.041 1.933zm.514.863c.105.322.138.663.095 1l2.789.353a5.101 5.101 0 00-.212-2.227l-2.672.874zm.084 1.176c0 1.091-.293 1.757-.653 2.142-.347.371-.923.656-1.872.656v2.81c1.539 0 2.929-.482 3.924-1.545.983-1.05 1.412-2.485 1.412-4.063h-2.811zm-2.525 2.798h-3.017v2.81h3.017v-2.81zm-1.612 1.405v-8.353h-2.811v8.353h2.811zm-1.405-6.948h3.017v-2.811h-3.017v2.811zm1.297 7.172h1.575v-2.81h-1.575v2.81zm1.491-.002a4.03 4.03 0 001.753-.287l-1.055-2.606c-.168.068-.35.098-.53.087l-.168 2.806zm1.753-.287a4.03 4.03 0 001.46-1.013l-2.073-1.9a1.22 1.22 0 01-.442.307l1.055 2.606zm1.46-1.013a4.03 4.03 0 00.882-1.541l-2.688-.825a1.222 1.222 0 01-.267.466l2.072 1.9zm.882-1.541a4.033 4.033 0 00.134-1.772l-2.78.41c.026.18.012.363-.041.537l2.687.825zm.136-1.376c.081-.59.03-1.19-.148-1.759l-2.682.842c.055.173.07.356.045.535l2.785.382zm-.148-1.759a4.04 4.04 0 00-.884-1.528l-2.067 1.906c.123.133.215.292.27.464l2.681-.842zm-.884-1.528a4.04 4.04 0 00-1.451-1.005l-1.057 2.606c.168.068.319.172.441.305l2.067-1.906zm-1.451-1.005a4.04 4.04 0 00-1.742-.29l.156 2.807c.18-.01.361.02.53.088l1.056-2.605zM53.114 12h-1.575v2.81h1.575V12zm-2.98 1.405v5.992h2.81v-5.992h-2.81z" fill="#EDEDED" mask="url(#a)"/><mask id="b" fill="#fff"><path d="M58.655 17.423a2.988 2.988 0 014.181-3.016 2.986 2.986 0 011.765 3.016 2.988 2.988 0 11-5.946 0zm4.666 0c0-1.367-.614-2.166-1.691-2.166-1.082 0-1.69.8-1.69 2.166 0 1.377.608 2.17 1.69 2.17 1.077 0 1.691-.798 1.691-2.17z"/></mask><path d="M58.655 17.423a2.988 2.988 0 014.181-3.016 2.986 2.986 0 011.765 3.016 2.988 2.988 0 11-5.946 0zm4.666 0c0-1.367-.614-2.166-1.691-2.166-1.082 0-1.69.8-1.69 2.166 0 1.377.608 2.17 1.69 2.17 1.077 0 1.691-.798 1.691-2.17z" fill="#EDEDED"/><path d="M61.628 14.152v-1.406 1.406zm2.973 3.27l-1.4-.133-.012.135.013.135 1.399-.136zm-1.28 0h-1.405v1.406h1.405v-1.405zm-1.691 2.171V21v-1.406zm1.691-2.17h1.406v-1.406H63.32v1.406zm-3.267-.134c-.02-.22.004-.44.074-.65l-2.668-.887a4.392 4.392 0 00-.204 1.805l2.798-.268zm.074-.65c.07-.209.182-.401.33-.564l-2.08-1.89a4.394 4.394 0 00-.918 1.567l2.668.887zm.33-.564a1.58 1.58 0 01.53-.382l-1.137-2.571c-.56.247-1.062.61-1.473 1.062l2.08 1.891zm.53-.382c.202-.09.42-.136.64-.136v-2.81c-.612 0-1.218.127-1.777.375l1.137 2.57zm.64-.136c.22 0 .438.046.64.136l1.137-2.571a4.393 4.393 0 00-1.777-.376v2.811zm.64.136c.201.089.382.219.53.382l2.08-1.89a4.391 4.391 0 00-1.473-1.063l-1.138 2.57zm.53.382c.148.163.26.355.33.564l2.667-.887a4.392 4.392 0 00-.917-1.568l-2.08 1.891zm.33.564c.07.21.095.43.074.65l2.798.268a4.392 4.392 0 00-.205-1.805l-2.667.887zm.074.92a1.59 1.59 0 01-.073.65l2.669.885A4.392 4.392 0 0066 17.286l-2.798.273zm-.073.65c-.07.21-.182.402-.33.566l2.082 1.889a4.4 4.4 0 00.917-1.57l-2.669-.884zm-.33.566a1.58 1.58 0 01-.53.383l1.138 2.57a4.393 4.393 0 001.474-1.064l-2.082-1.89zm-.53.383c-.202.09-.42.136-.641.136v2.81c.613 0 1.218-.127 1.779-.375l-1.139-2.57zm-.641.136c-.22 0-.439-.047-.64-.136l-1.14 2.57a4.386 4.386 0 001.78.377v-2.811zm-.64-.136a1.58 1.58 0 01-.531-.383l-2.082 1.889a4.38 4.38 0 001.474 1.064l1.138-2.57zm-.531-.383a1.581 1.581 0 01-.33-.565l-2.669.884a4.4 4.4 0 00.917 1.57l2.082-1.89zm-.33-.565a1.584 1.584 0 01-.073-.651l-2.798-.273c-.06.61.01 1.226.202 1.808l2.669-.884zm4.6-.787c0-.87-.193-1.757-.738-2.458-.584-.75-1.437-1.113-2.36-1.113v2.81c.095 0 .13.018.132.018.001 0 0 0 0 0l.009.01c.03.04.145.235.145.733h2.812zm-3.097-3.571c-.924 0-1.778.361-2.361 1.114-.545.703-.734 1.59-.734 2.457h2.81c0-.5.115-.695.145-.734l.009-.01-.002.001c.001 0 .037-.017.133-.017v-2.811zm-3.096 3.57c0 .87.19 1.76.735 2.464.585.755 1.44 1.113 2.36 1.113v-2.811a.346.346 0 01-.134-.018l.002.002c.002 0 0 0-.007-.009-.029-.037-.144-.233-.144-.74h-2.811zM61.63 21c.922 0 1.776-.362 2.36-1.115.545-.702.737-1.59.737-2.461h-2.812c0 .5-.115.697-.146.737-.007.01-.01.012-.009.01.001 0 .002 0 0 0 0 0-.036.018-.13.018v2.81zm1.691-4.982v2.811-2.81z" fill="#EDEDED" mask="url(#b)"/><path d="M71.747 19.875l-.025-.089h.271l-.024.088h-.222zm-1.934-4.643h-.064l.069-.256h.117l.069.255h-.191zm-2.04 4.643l-.025-.089h.259l-.025.088h-.21z" fill="#EDEDED" stroke="#EDEDED" stroke-width="1.406"/><mask id="c" fill="#fff"><path d="M75.697 14.274h1.198v1.001h.093a1.886 1.886 0 011.881-1.123 2.05 2.05 0 012.182 2.345v4.08h-1.244V16.81c0-1.013-.44-1.517-1.36-1.517a1.445 1.445 0 00-1.505 1.598v3.688h-1.245v-6.304z"/></mask><path d="M75.697 14.274h1.198v1.001h.093a1.886 1.886 0 011.881-1.123 2.05 2.05 0 012.182 2.345v4.08h-1.244V16.81c0-1.013-.44-1.517-1.36-1.517a1.445 1.445 0 00-1.505 1.598v3.688h-1.245v-6.304z" fill="#EDEDED"/><path d="M75.697 14.274v-1.406h-1.405v1.406h1.405zm1.198 0h1.406v-1.406h-1.406v1.406zm0 1.001H75.49v1.406h1.405v-1.406zm.093 0v1.406h.918l.37-.841-1.288-.565zm1.881-1.123l-.114 1.401.11.009.11-.008-.106-1.402zm2.182 2.345l-1.39-.206-.015.102v.104h1.405zm0 4.08v1.406h1.406v-1.405H81.05zm-1.244 0h-1.405v1.406h1.405v-1.405zm-1.36-5.285l-.066 1.404.033.002h.033v-1.406zm-1.505 1.598h1.405v-.075l-.008-.074-1.397.149zm0 3.688v1.405h1.405v-1.405h-1.405zm-1.245 0h-1.405v1.405h1.405v-1.405zm0-4.899h1.198v-2.81h-1.198v2.81zm-.207-1.405v1.001h2.81v-1.001h-2.81zm1.405 2.407h.093V13.87h-.093v2.81zm1.38-.841a.481.481 0 01.194-.22l-1.44-2.414A3.293 3.293 0 0075.7 14.71l2.574 1.129zm.194-.22a.481.481 0 01.286-.067l.228-2.802a3.293 3.293 0 00-1.955.455l1.441 2.414zm.506-.066a.643.643 0 01.283.042l1.025-2.617a3.457 3.457 0 00-1.52-.229l.212 2.804zm.283.042c.09.036.171.09.237.161l2.058-1.915a3.455 3.455 0 00-1.27-.864l-1.025 2.618zm.237.161a.652.652 0 01.144.248l2.684-.834a3.456 3.456 0 00-.77-1.329l-2.058 1.915zm.144.248c.029.093.036.19.022.286l2.78.412a3.457 3.457 0 00-.118-1.532l-2.684.834zm.007.492v4.08h2.81v-4.08h-2.81zm1.405 2.675h-1.244v2.811h1.244v-2.81zm.162 1.406v-3.769h-2.811v3.769h2.81zm0-3.769c0-.678-.143-1.458-.692-2.073-.577-.648-1.362-.85-2.074-.85v2.812c.106 0 .134.015.113.007a.41.41 0 01-.138-.1c-.048-.053-.054-.09-.047-.065.009.03.027.113.027.27h2.81zm-2.7-2.92c-.412-.02-.821.05-1.203.204l1.054 2.606a.043.043 0 01.017-.003l.131-2.808zm-1.203.204a2.852 2.852 0 00-1.006.688l2.046 1.928a.041.041 0 01.014-.01l-1.054-2.606zm-1.006.688c-.282.3-.496.656-.627 1.046l2.664.897a.042.042 0 01.009-.015l-2.046-1.928zm-.627 1.046c-.131.39-.177.803-.133 1.212l2.795-.298c0-.006 0-.012.002-.017l-2.664-.897zm-.141 1.063v3.688h2.811V16.89h-2.811zm1.406 2.282h-1.245v2.811h1.245v-2.81zm.161 1.406v-6.304h-2.811v6.304h2.811z" fill="#EDEDED" mask="url(#c)"/><mask id="d" fill="#fff"><path d="M83.034 11.812h1.244v8.765h-1.244v-8.765z"/></mask><path d="M83.034 11.812h1.244v8.765h-1.244v-8.765z" fill="#EDEDED"/><path d="M83.034 11.812v-1.405h-1.406v1.405h1.406zm1.244 0h1.405v-1.405h-1.405v1.405zm0 8.765v1.406h1.405v-1.406h-1.405zm-1.244 0h-1.406v1.406h1.406v-1.406zm0-7.36h1.244v-2.81h-1.244v2.81zm-.162-1.405v8.765h2.811v-8.765h-2.81zm1.406 7.36h-1.244v2.81h1.244v-2.81zm.161 1.405v-8.765h-2.81v8.765h2.81z" fill="#EDEDED" mask="url(#d)"/><mask id="e" fill="#fff"><path d="M86.006 17.423a2.987 2.987 0 115.946 0 2.986 2.986 0 01-5.185 2.297 2.988 2.988 0 01-.761-2.297zm4.666 0c0-1.367-.614-2.166-1.691-2.166-1.082 0-1.69.8-1.69 2.166 0 1.377.608 2.17 1.69 2.17 1.077 0 1.691-.798 1.691-2.17z"/></mask><path d="M86.006 17.423a2.987 2.987 0 115.946 0 2.986 2.986 0 01-5.185 2.297 2.988 2.988 0 01-.761-2.297zm4.666 0c0-1.367-.614-2.166-1.691-2.166-1.082 0-1.69.8-1.69 2.166 0 1.377.608 2.17 1.69 2.17 1.077 0 1.691-.798 1.691-2.17z" fill="#EDEDED"/><path d="M91.952 17.423l-1.399-.134-.013.135.013.135 1.4-.136zm-2.973 3.276v-1.405 1.405zm1.693-3.276h-1.406v1.405h1.406v-1.405zm-1.691 2.17V21v-1.406zm1.691-2.17h1.406v-1.406h-1.406v1.406zm-3.267-.134a1.58 1.58 0 01.074-.65l-2.668-.887a4.392 4.392 0 00-.205 1.805l2.799-.268zm.074-.65c.07-.209.182-.4.33-.564l-2.08-1.89a4.392 4.392 0 00-.918 1.567l2.668.887zm.33-.564a1.58 1.58 0 01.53-.382l-1.137-2.571c-.56.247-1.062.61-1.473 1.062l2.08 1.891zm.53-.382c.202-.09.42-.136.64-.136v-2.81c-.612 0-1.217.127-1.777.375l1.137 2.57zm.64-.136c.22 0 .438.046.64.136l1.137-2.571a4.393 4.393 0 00-1.777-.376v2.811zm.64.136c.201.089.382.219.53.382l2.08-1.89a4.393 4.393 0 00-1.473-1.063l-1.137 2.57zm.53.382c.148.163.261.355.33.564l2.668-.887a4.393 4.393 0 00-.918-1.568l-2.08 1.891zm.33.564c.07.21.095.43.074.65l2.799.268a4.392 4.392 0 00-.205-1.805l-2.668.887zm.075.92c.02.22-.004.441-.073.65l2.668.885a4.392 4.392 0 00.202-1.807l-2.797.272zm-.073.65c-.07.21-.182.402-.33.566l2.081 1.89c.412-.455.724-.99.917-1.571l-2.668-.885zm-.33.566c-.149.163-.33.294-.531.383l1.138 2.57a4.393 4.393 0 001.474-1.064l-2.082-1.89zm-.531.383c-.202.09-.42.136-.64.136v2.81c.612 0 1.218-.127 1.778-.375l-1.138-2.57zm-.64.136a1.58 1.58 0 01-.642-.136l-1.138 2.57c.56.249 1.166.377 1.78.377v-2.811zm-.642-.136a1.58 1.58 0 01-.53-.383l-2.082 1.89c.412.453.914.815 1.474 1.064l1.138-2.57zm-.53-.383a1.582 1.582 0 01-.33-.566l-2.669.885a4.4 4.4 0 00.917 1.57l2.082-1.89zm-.33-.566a1.58 1.58 0 01-.073-.65l-2.798-.272c-.06.61.01 1.225.202 1.807l2.669-.885zm4.6-.786c0-.87-.193-1.757-.738-2.458-.584-.75-1.437-1.113-2.36-1.113v2.81c.095 0 .13.018.132.018.001 0 0 0 0 0l.009.01c.03.04.145.236.145.733h2.812zm-3.097-3.571c-.924 0-1.778.361-2.362 1.114-.544.703-.734 1.59-.734 2.457h2.811c0-.5.115-.695.145-.734l.009-.01-.002.001s.037-.017.133-.017v-2.811zm-3.096 3.57c0 .87.19 1.76.735 2.464.585.755 1.44 1.113 2.36 1.113v-2.811c-.097 0-.133-.018-.134-.018l.002.002-.007-.009c-.029-.037-.144-.233-.144-.74h-2.812zM88.981 21c.922 0 1.776-.362 2.36-1.114.545-.703.737-1.591.737-2.462h-2.812c0 .5-.115.698-.146.738l-.009.01c.001-.001.002-.001 0 0 0 0-.036.017-.13.017v2.81zm1.691-4.982v2.811-2.81z" fill="#EDEDED" mask="url(#e)"/><mask id="f" fill="#fff"><path d="M93.264 18.795c0-1.135.845-1.79 2.345-1.882l1.707-.099v-.544c0-.665-.44-1.041-1.29-1.041-.695 0-1.176.255-1.314.7h-1.205c.127-1.083 1.146-1.777 2.576-1.777 1.58 0 2.472.787 2.472 2.118v4.308h-1.198v-.886h-.098a2.12 2.12 0 01-1.894.99 1.904 1.904 0 01-2.101-1.887zm4.052-.539v-.527l-1.54.099c-.867.058-1.261.353-1.261.909 0 .567.492.897 1.169.897a1.484 1.484 0 001.632-1.378z"/></mask><path d="M93.264 18.795c0-1.135.845-1.79 2.345-1.882l1.707-.099v-.544c0-.665-.44-1.041-1.29-1.041-.695 0-1.176.255-1.314.7h-1.205c.127-1.083 1.146-1.777 2.576-1.777 1.58 0 2.472.787 2.472 2.118v4.308h-1.198v-.886h-.098a2.12 2.12 0 01-1.894.99 1.904 1.904 0 01-2.101-1.887zm4.052-.539v-.527l-1.54.099c-.867.058-1.261.353-1.261.909 0 .567.492.897 1.169.897a1.484 1.484 0 001.632-1.378z" fill="#EDEDED"/><path d="M95.609 16.913l-.081-1.403h-.006l.087 1.403zm1.707-.099l.081 1.404 1.325-.077v-1.327h-1.406zm-2.604-.885v1.406h1.036l.306-.99-1.342-.416zm-1.205 0l-1.396-.164-.184 1.57h1.58v-1.406zm5.048 4.649v1.405h1.405v-1.405h-1.405zm-1.198 0h-1.405v1.405h1.405v-1.405zm0-.886h1.406v-1.406h-1.406v1.406zm-.098 0v-1.406h-.777l-.413.657 1.19.749zm-1.894.99l.065-1.405-.105-.005-.105.011.145 1.398zm1.951-2.953h1.406v-1.498l-1.495.095.09 1.403zm-1.54.099l-.089-1.403h-.004l.094 1.402zm-.092 1.806l.142-1.398-.071-.007h-.071v1.405zm-1.014-.84a.41.41 0 01.026-.17.162.162 0 01.053-.06c.09-.073.357-.212.947-.248l-.174-2.806c-.91.056-1.816.291-2.523.853-.761.605-1.14 1.472-1.14 2.432h2.81zm1.02-.478l1.707-.098-.162-2.807-1.707.099.162 2.806zm3.032-1.502v-.544H95.91v.544h2.81zm0-.544c0-.663-.235-1.361-.841-1.858-.561-.459-1.25-.59-1.855-.59v2.812c.112 0 .166.013.176.016.008.002-.038-.01-.103-.063a.565.565 0 01-.16-.212c-.03-.074-.028-.117-.028-.105h2.81zm-2.696-2.447c-.939 0-2.246.365-2.657 1.69l2.685.832a.587.587 0 01-.116.21.432.432 0 01-.117.097c-.02.011-.018.006.019-.002a.914.914 0 01.186-.016v-2.811zm-1.314.7h-1.205v2.812h1.205v-2.811zm.191 1.57c.013-.108.058-.203.2-.3.164-.113.481-.236.98-.236v-2.81c-1.81 0-3.727.94-3.972 3.018l2.792.328zm1.18-.536c.574 0 .823.144.91.218.057.05.156.16.156.495h2.811c0-.997-.346-1.945-1.13-2.622-.754-.652-1.74-.902-2.747-.902v2.811zm1.066.713v4.308h2.811V16.27h-2.81zm1.406 2.902h-1.198v2.811h1.198v-2.811zm.208 1.406v-.886h-2.811v.886h2.81zm-1.406-2.292h-.098v2.811h.098v-2.81zm-1.288.657a.716.716 0 01-.274.254l1.302 2.491c.553-.29 1.02-.72 1.352-1.248l-2.38-1.497zm-.274.254a.717.717 0 01-.365.08l-.13 2.808a3.526 3.526 0 001.797-.397l-1.302-2.491zm-.575.086c-.07.008-.14 0-.206-.021l-.868 2.673c.44.143.905.192 1.365.145l-.291-2.797zm-.206-.021a.5.5 0 01-.179-.104l-1.878 2.092c.344.31.75.543 1.189.685l.868-2.673zm-.179-.104a.501.501 0 01-.122-.167l-2.565 1.15c.19.423.465.8.81 1.11l1.877-2.093zm-.122-.167a.498.498 0 01-.043-.202l-2.811.011c.001.463.1.92.29 1.342l2.564-1.15zm4.009-.735v-.527H95.91v.527h2.81zm-1.495-1.93l-1.54.099.18 2.805 1.539-.098-.18-2.806zm-1.544.1c-.534.035-1.166.152-1.69.533-.618.45-.884 1.113-.884 1.778h2.812a.57.57 0 01-.06.232.698.698 0 01-.214.263c-.064.047-.096.05-.054.037.041-.011.128-.03.278-.04l-.188-2.804zm-2.574 2.31c0 .743.345 1.382.901 1.793.514.38 1.126.51 1.674.51v-2.81c-.13 0-.102-.034-.003.039.055.04.122.109.172.208.052.1.068.194.068.26h-2.812zm2.433 2.297c.386.039.776 0 1.147-.115l-.832-2.685a.08.08 0 01-.031.003l-.284 2.797zm1.147-.115a2.9 2.9 0 001.01-.553l-1.814-2.148a.08.08 0 01-.028.016l.832 2.685zm1.01-.553c.296-.25.54-.557.714-.903l-2.508-1.27a.081.081 0 01-.02.025l1.814 2.148zm.714-.903c.176-.346.28-.724.306-1.11l-2.805-.19a.08.08 0 01-.009.03l2.508 1.27z" fill="#EDEDED" mask="url(#f)"/><path d="M105.375 16.222a3.222 3.222 0 00-.096-.245h.096v.245zm-.094 2.656c.035-.077.066-.157.094-.24v.24h-.094z" fill="#EDEDED" stroke="#EDEDED" stroke-width="1.406"/><mask id="g" fill="#fff"><path d="M111.224 17.423a2.986 2.986 0 115.946 0 2.995 2.995 0 01-1.763 3.02 2.99 2.99 0 01-4.046-1.791 2.994 2.994 0 01-.137-1.23zm4.666 0c0-1.367-.614-2.166-1.691-2.166-1.082 0-1.69.8-1.69 2.166 0 1.377.608 2.17 1.69 2.17 1.077 0 1.691-.798 1.691-2.17z"/></mask><path d="M111.224 17.423a2.986 2.986 0 115.946 0 2.995 2.995 0 01-1.763 3.02 2.99 2.99 0 01-4.046-1.791 2.994 2.994 0 01-.137-1.23zm4.666 0c0-1.367-.614-2.166-1.691-2.166-1.082 0-1.69.8-1.69 2.166 0 1.377.608 2.17 1.69 2.17 1.077 0 1.691-.798 1.691-2.17z" fill="#EDEDED"/><path d="M114.197 14.152v-1.406 1.406zm2.973 3.27l-1.399-.133-.013.135.013.135 1.399-.136zm-2.971 2.171V21v-1.406zm-1.576-2.304c-.021-.22.004-.44.074-.65l-2.668-.887a4.383 4.383 0 00-.204 1.805l2.798-.268zm.074-.65c.069-.209.182-.401.33-.564l-2.08-1.89a4.4 4.4 0 00-.918 1.567l2.668.887zm.33-.564a1.58 1.58 0 01.53-.382l-1.137-2.571c-.56.248-1.062.61-1.473 1.062l2.08 1.891zm.53-.382c.202-.09.42-.136.64-.136v-2.81a4.39 4.39 0 00-1.777.375l1.137 2.57zm.64-.136c.22 0 .438.046.639.136l1.138-2.571a4.394 4.394 0 00-1.777-.376v2.811zm.639.136c.202.089.383.219.531.382l2.08-1.89a4.393 4.393 0 00-1.473-1.063l-1.138 2.57zm.531.382c.148.163.26.355.33.564l2.667-.887a4.384 4.384 0 00-.917-1.568l-2.08 1.891zm.33.564c.069.21.095.43.074.65l2.798.268a4.383 4.383 0 00-.205-1.805l-2.667.887zm.074.92a1.59 1.59 0 01-.073.65l2.669.885a4.41 4.41 0 00.202-1.808l-2.798.273zm-.073.65a1.58 1.58 0 01-.33.566l2.082 1.889a4.4 4.4 0 00.917-1.57l-2.669-.884zm-.33.566a1.576 1.576 0 01-.531.383l1.139 2.57a4.398 4.398 0 001.474-1.064l-2.082-1.89zm-.531.383a1.58 1.58 0 01-.64.136v2.81c.613 0 1.219-.127 1.779-.375l-1.139-2.57zm-.64.136a1.59 1.59 0 01-.641-.136l-1.138 2.57c.56.249 1.166.377 1.779.377v-2.811zm-.641-.136a1.582 1.582 0 01-.53-.383l-2.082 1.889a4.39 4.39 0 001.474 1.064l1.138-2.57zm-.53-.383a1.565 1.565 0 01-.33-.565l-2.669.884a4.4 4.4 0 00.917 1.57l2.082-1.89zm-.33-.565a1.561 1.561 0 01-.073-.651l-2.798-.273c-.059.61.009 1.226.202 1.808l2.669-.884zm4.6-.787c0-.87-.193-1.757-.738-2.458-.584-.75-1.437-1.113-2.359-1.113v2.81c.094 0 .13.018.131.018h-.001c0-.001.003.001.01.01.031.04.146.235.146.733h2.811zm-3.097-3.571c-.924 0-1.778.361-2.361 1.114-.545.703-.734 1.59-.734 2.457h2.811c0-.5.114-.695.144-.734l.009-.01-.002.001c.001 0 .037-.017.133-.017v-2.811zm-3.095 3.57c0 .87.188 1.76.734 2.464.585.755 1.441 1.113 2.361 1.113v-2.811c-.098 0-.134-.018-.135-.018l.002.002c.002 0-.001 0-.007-.009-.029-.037-.144-.233-.144-.74h-2.811zM114.199 21c.922 0 1.776-.362 2.36-1.115.545-.702.737-1.59.737-2.461h-2.811c0 .5-.116.697-.147.737-.007.01-.01.012-.009.01h.001c-.001 0-.037.018-.131.018v2.81z" fill="#EDEDED" mask="url(#g)"/><mask id="h" fill="#fff"><path d="M118.84 14.274h1.197v1.001h.093a1.89 1.89 0 011.882-1.123 2.052 2.052 0 012.182 2.345v4.08h-1.244V16.81c0-1.013-.441-1.517-1.361-1.517a1.443 1.443 0 00-1.438.983 1.455 1.455 0 00-.067.615v3.688h-1.244v-6.304z"/></mask><path d="M118.84 14.274h1.197v1.001h.093a1.89 1.89 0 011.882-1.123 2.052 2.052 0 012.182 2.345v4.08h-1.244V16.81c0-1.013-.441-1.517-1.361-1.517a1.443 1.443 0 00-1.438.983 1.455 1.455 0 00-.067.615v3.688h-1.244v-6.304z" fill="#EDEDED"/><path d="M118.84 14.274v-1.406h-1.406v1.406h1.406zm1.197 0h1.406v-1.406h-1.406v1.406zm0 1.001h-1.405v1.406h1.405v-1.406zm.093 0v1.406h.919l.369-.841-1.288-.565zm1.882-1.123l-.114 1.401.109.009.11-.008-.105-1.402zm2.182 2.345l-1.391-.206-.015.102v.104h1.406zm0 4.08v1.406h1.405v-1.405h-1.405zm-1.244 0h-1.406v1.406h1.406v-1.405zm-1.361-5.285l-.065 1.404.033.002h.032v-1.406zm-1.505 1.598h1.406v-.075l-.008-.074-1.398.149zm0 3.688v1.405h1.406v-1.405h-1.406zm-1.244 0h-1.406v1.405h1.406v-1.405zm0-4.899h1.197v-2.81h-1.197v2.81zm-.208-1.405v1.001h2.811v-1.001h-2.811zm1.405 2.407h.093V13.87h-.093v2.81zm1.381-.841a.48.48 0 01.194-.22l-1.441-2.414a3.295 3.295 0 00-1.328 1.505l2.575 1.129zm.194-.22a.482.482 0 01.286-.067l.228-2.802a3.293 3.293 0 00-1.955.455l1.441 2.414zm.505-.066a.64.64 0 01.283.042l1.025-2.617a3.458 3.458 0 00-1.519-.229l.211 2.804zm.283.042c.091.036.172.09.237.161l2.058-1.915a3.452 3.452 0 00-1.27-.864l-1.025 2.618zm.237.161a.64.64 0 01.144.248l2.685-.834a3.449 3.449 0 00-.771-1.329l-2.058 1.915zm.144.248c.029.093.036.19.022.286l2.781.412a3.452 3.452 0 00-.118-1.532l-2.685.834zm.007.492v4.08h2.811v-4.08h-2.811zm1.406 2.675h-1.244v2.811h1.244v-2.81zm.161 1.406v-3.769h-2.811v3.769h2.811zm0-3.769c0-.678-.143-1.458-.691-2.073-.577-.648-1.363-.85-2.075-.85v2.812c.106 0 .134.015.114.007a.285.285 0 01-.061-.032.423.423 0 01-.077-.067c-.048-.054-.055-.09-.047-.066.008.03.026.113.026.27h2.811zm-2.7-2.92a2.85 2.85 0 00-1.202.204l1.054 2.606a.041.041 0 01.017-.003l.131-2.808zm-1.202.204a2.855 2.855 0 00-1.007.688l2.046 1.928a.04.04 0 01.015-.01l-1.054-2.606zm-1.007.688a2.88 2.88 0 00-.627 1.046l2.665.897a.03.03 0 01.008-.015l-2.046-1.928zm-.627 1.046c-.131.39-.176.803-.133 1.212l2.796-.298a.034.034 0 01.002-.017l-2.665-.897zm-.141 1.063v3.688h2.812V16.89h-2.812zm1.406 2.282h-1.244v2.811h1.244v-2.81zm.161 1.406v-6.304h-2.811v6.304h2.811z" fill="#EDEDED" mask="url(#h)"/><mask id="i" fill="#fff"><path d="M131.222 12.703v1.598h1.366v1.048h-1.366v3.242c0 .66.272.95.892.95.158-.001.317-.01.474-.03v1.037a4.15 4.15 0 01-.677.064c-1.383 0-1.934-.487-1.934-1.702v-3.56h-1.001V14.3h1.001v-1.598h1.245z"/></mask><path d="M131.222 12.703v1.598h1.366v1.048h-1.366v3.242c0 .66.272.95.892.95.158-.001.317-.01.474-.03v1.037a4.15 4.15 0 01-.677.064c-1.383 0-1.934-.487-1.934-1.702v-3.56h-1.001V14.3h1.001v-1.598h1.245z" fill="#EDEDED"/><path d="M131.222 12.703h1.406v-1.405h-1.406v1.405zm0 1.598h-1.405v1.406h1.405v-1.406zm1.366 0h1.406v-1.405h-1.406V14.3zm0 1.048v1.406h1.406v-1.406h-1.406zm-1.366 0v-1.405h-1.405v1.405h1.405zm.892 4.191v1.406h.004l-.004-1.406zm.474-.028h1.406V17.93l-1.571.186.165 1.396zm0 1.036l.248 1.384 1.158-.207v-1.177h-1.406zm-.677.064v1.405h.015l-.015-1.405zm-1.934-5.263h1.405v-1.405h-1.405v1.405zm-1.001 0h-1.405v1.406h1.405v-1.406zm0-1.048v-1.405h-1.405V14.3h1.405zm1.001 0v1.406h1.405V14.3h-1.405zm0-1.598v-1.405h-1.406v1.405h1.406zm-.16 0v1.598h2.811v-1.598h-2.811zm1.405 3.004h1.366v-2.811h-1.366v2.811zm-.039-1.406v1.048h2.811v-1.048h-2.811zm1.405-.357h-1.366v2.81h1.366v-2.81zm-2.771 1.405v3.242h2.811v-3.242h-2.811zm0 3.242c0 .482.092 1.15.594 1.685.521.554 1.201.67 1.703.67v-2.811c-.118 0 .116-.029.346.216.211.225.168.419.168.24h-2.811zm2.301 2.355c.212 0 .424-.014.635-.038l-.33-2.792a2.765 2.765 0 01-.314.019l.009 2.811zm-.935-1.434v1.036h2.811v-1.036h-2.811zm1.158-.348a2.67 2.67 0 01-.444.042l.029 2.811c.305-.003.609-.032.91-.085l-.495-2.768zm-.43.042a2.2 2.2 0 01-.529-.049c-.085-.022-.072-.035-.028.005.051.044.066.088.062.076a1.118 1.118 0 01-.034-.328h-2.811c0 .788.177 1.702.925 2.361.703.619 1.619.746 2.415.746v-2.81zm-.529-.296v-3.56h-2.811v3.56h2.811zm-1.405-4.966h-1.001v2.81h1.001v-2.81zm.405 1.405v-1.048h-2.811v1.048h2.811zm-1.406.358h1.001v-2.811h-1.001v2.81zm2.406-1.406v-1.598h-2.811v1.598h2.811zm-1.405-.192h1.245v-2.811h-1.245v2.81z" fill="#EDEDED" mask="url(#i)"/><mask id="j" fill="#fff"><path d="M134.289 11.812h1.233v3.474h.099a1.936 1.936 0 011.922-1.129 2.074 2.074 0 012.171 2.35v4.07h-1.245v-3.763c0-1.007-.469-1.517-1.348-1.517a1.476 1.476 0 00-1.506.968 1.471 1.471 0 00-.082.63v3.682h-1.244v-8.765z"/></mask><path d="M134.289 11.812h1.233v3.474h.099a1.936 1.936 0 011.922-1.129 2.074 2.074 0 012.171 2.35v4.07h-1.245v-3.763c0-1.007-.469-1.517-1.348-1.517a1.476 1.476 0 00-1.506.968 1.471 1.471 0 00-.082.63v3.682h-1.244v-8.765z" fill="#EDEDED"/><path d="M134.289 11.812v-1.405h-1.406v1.405h1.406zm1.233 0h1.406v-1.405h-1.406v1.405zm0 3.474h-1.405v1.406h1.405v-1.406zm.099 0v1.406h.904l.375-.823-1.279-.583zm1.922-1.129l-.114 1.4.095.009.095-.006-.076-1.403zm2.171 2.35l-1.393-.187-.013.093v.094h1.406zm0 4.07v1.406h1.406v-1.406h-1.406zm-1.245 0h-1.406v1.406h1.406v-1.406zm-1.348-5.28l-.115 1.401.057.005h.058v-1.406zm-1.588 1.598h1.406v-.062l-.006-.062-1.4.124zm0 3.682v1.406h1.406v-1.406h-1.406zm-1.244 0h-1.405v1.406h1.405v-1.406zm0-7.36h1.233v-2.81h-1.233v2.81zm-.172-1.405v3.474h2.811v-3.474h-2.811zm1.405 4.88h.099V13.88h-.099v2.81zm1.378-.823a.534.534 0 01.215-.24l-1.424-2.423a3.343 3.343 0 00-1.349 1.498l2.558 1.165zm.215-.24a.536.536 0 01.314-.071l.228-2.802a3.349 3.349 0 00-1.966.45l1.424 2.424zm.504-.069a.672.672 0 01.289.049l1.057-2.605a3.485 3.485 0 00-1.499-.25l.153 2.806zm.289.049a.676.676 0 01.241.166l2.065-1.907a3.49 3.49 0 00-1.249-.864l-1.057 2.605zm.241.166a.675.675 0 01.147.253l2.68-.847a3.483 3.483 0 00-.762-1.313l-2.065 1.907zm.147.253a.686.686 0 01.025.292l2.786.374a3.477 3.477 0 00-.131-1.513l-2.68.847zm.012.48v4.07h2.812v-4.07h-2.812zm1.406 2.664h-1.245v2.81h1.245v-2.81zm.16 1.405v-3.763h-2.811v3.763h2.811zm0-3.763c0-.697-.16-1.468-.703-2.074-.568-.633-1.337-.848-2.05-.848v2.81c.086 0 .106.014.083.005a.363.363 0 01-.126-.09c-.043-.048-.048-.079-.041-.055a.898.898 0 01.026.252h2.811zm-2.639-2.918a2.877 2.877 0 00-1.231.169l.973 2.637a.067.067 0 01.029-.004l.229-2.802zm-1.231.169a2.87 2.87 0 00-1.046.672l1.995 1.98a.06.06 0 01.024-.015l-.973-2.637zm-1.046.672a2.879 2.879 0 00-.665 1.05l2.644.955a.064.064 0 01.016-.024l-1.995-1.981zm-.665 1.05a2.888 2.888 0 00-.16 1.233l2.8-.25a.07.07 0 01.004-.028l-2.644-.955zm-.165 1.108v3.682h2.811v-3.682h-2.811zm1.405 2.277h-1.244v2.81h1.244v-2.81zm.162 1.405v-8.765h-2.812l.001 8.765h2.811z" fill="#EDEDED" mask="url(#j)"/><path d="M142.59 17.06H142c0-.07.003-.14.01-.21l.58-.007v.217z" fill="#EDEDED" stroke="#EDEDED" stroke-width="1.406"/></svg>