<svg width="189" height="56" fill="none" xmlns="http://www.w3.org/2000/svg"><rect x=".729" y=".703" width="186.594" height="54.436" rx="6.325" stroke="#EDEDED" stroke-width="1.406"/><path d="M181.063 55.139H6.989c-3.44 0-6.26-2.825-6.26-6.278V6.981C.73 3.527 3.55.702 6.99.702h174.074c3.44 0 6.261 2.825 6.261 6.277V48.86c0 3.453-2.821 6.278-6.261 6.278z" stroke="#EDEDED" stroke-width="1.406"/><path d="M66.062 14.295c0 1.173-.348 2.108-1.044 2.792-.78.824-1.81 1.243-3.064 1.243-1.211 0-2.228-.419-3.077-1.257-.85-.837-1.268-1.884-1.268-3.113 0-1.242.418-2.275 1.268-3.113.85-.838 1.866-1.256 3.077-1.256.599 0 1.17.111 1.713.349.543.237.975.544 1.31.935l-.739.74c-.557-.656-1.309-.991-2.284-.991-.877 0-1.643.307-2.284.935-.64.614-.96 1.424-.96 2.415 0 .991.32 1.801.96 2.415.641.615 1.407.936 2.284.936.933 0 1.713-.307 2.34-.936.404-.404.64-.977.696-1.703h-3.036v-1.019h4.053c.027.223.055.433.055.628zm6.421-3.489H68.68v2.653h3.426v1.005H68.68v2.652h3.802v1.034h-4.874V9.773h4.874v1.033zm4.525 7.344h-1.072v-7.344h-2.34V9.773h5.738v1.033h-2.34v7.344h.014zm6.49 0V9.773h1.072v8.377h-1.072zm5.835 0H88.26v-7.344h-2.339V9.773h5.737v1.033h-2.34v7.344h.015zm13.202-1.09c-.822.851-1.838 1.27-3.064 1.27-1.225 0-2.242-.419-3.063-1.27-.822-.852-1.226-1.885-1.226-3.1 0-1.214.404-2.261 1.226-3.099.821-.852 1.838-1.27 3.063-1.27 1.212 0 2.229.418 3.064 1.27.822.852 1.239 1.885 1.239 3.1-.013 1.228-.417 2.26-1.239 3.098zm-5.334-.698c.613.628 1.38.935 2.27.935.892 0 1.658-.307 2.27-.936.613-.628.933-1.424.933-2.4 0-.978-.306-1.774-.933-2.402a3.065 3.065 0 00-2.27-.95c-.89 0-1.657.308-2.27.936-.612.642-.933 1.438-.933 2.415 0 .977.32 1.773.933 2.401zm8.077 1.788V9.773h1.309l4.066 6.52h.042l-.042-1.62v-4.9h1.073v8.377h-1.114l-4.248-6.827h-.042l.042 1.62v5.207h-1.086z" fill="#EDEDED" stroke="#EDEDED" stroke-width=".281" stroke-miterlimit="10"/><mask id="a" fill="#fff"><path d="M94.916 30.363c-3.273 0-5.947 2.5-5.947 5.933 0 3.42 2.674 5.934 5.947 5.934 3.272 0 5.946-2.513 5.946-5.934 0-3.434-2.674-5.933-5.946-5.933zm0 9.535c-1.797 0-3.343-1.48-3.343-3.602 0-2.136 1.546-3.601 3.343-3.601 1.796 0 3.342 1.465 3.342 3.601 0 2.122-1.56 3.602-3.342 3.602zm-12.98-9.535c-3.272 0-5.946 2.5-5.946 5.933 0 3.42 2.674 5.934 5.947 5.934 3.272 0 5.946-2.513 5.946-5.934 0-3.434-2.674-5.933-5.946-5.933zm0 9.535c-1.796 0-3.342-1.48-3.342-3.602 0-2.136 1.546-3.601 3.343-3.601 1.796 0 3.342 1.465 3.342 3.601 0 2.122-1.546 3.602-3.342 3.602zm-15.43-7.706v2.513h6.017c-.181 1.41-.655 2.457-1.365 3.169-.877.88-2.242 1.843-4.637 1.843-3.705 0-6.601-2.988-6.601-6.701 0-3.714 2.896-6.701 6.6-6.701 1.992 0 3.454.781 4.527 1.8l1.768-1.772c-1.504-1.438-3.495-2.541-6.308-2.541-5.07 0-9.33 4.132-9.33 9.228 0 5.081 4.26 9.227 9.33 9.227 2.743 0 4.804-.893 6.42-2.582 1.657-1.661 2.172-4.007 2.172-5.891 0-.587-.042-1.131-.14-1.578h-8.452v-.014zm63.099 1.955c-.487-1.327-1.991-3.784-5.069-3.784-3.05 0-5.584 2.401-5.584 5.933 0 3.323 2.507 5.934 5.877 5.934 2.715 0 4.289-1.662 4.929-2.625l-2.019-1.354c-.668.991-1.587 1.647-2.91 1.647-1.323 0-2.27-.614-2.869-1.8l7.924-3.281-.279-.67zm-8.077 1.982c-.069-2.29 1.769-3.462 3.092-3.462 1.03 0 1.908.516 2.2 1.256l-5.292 2.206zm-6.434 5.752h2.605V24.43h-2.605v17.45zm-4.261-10.192h-.097c-.585-.698-1.699-1.326-3.12-1.326-2.966 0-5.682 2.61-5.682 5.961 0 3.323 2.716 5.92 5.682 5.92 1.407 0 2.535-.629 3.12-1.355h.083v.852c0 2.276-1.211 3.49-3.161 3.49-1.588 0-2.576-1.145-2.98-2.108l-2.27.95c.654 1.577 2.381 3.503 5.25 3.503 3.05 0 5.626-1.8 5.626-6.184V30.726h-2.465v.963h.014zm-2.994 8.21c-1.796 0-3.3-1.508-3.3-3.575 0-2.094 1.504-3.615 3.3-3.615 1.769 0 3.161 1.535 3.161 3.615.014 2.067-1.379 3.574-3.161 3.574zm33.965-15.469h-6.225v17.45h2.605v-6.617h3.634c2.883 0 5.71-2.094 5.71-5.416 0-3.323-2.855-5.417-5.724-5.417zm.056 8.404h-3.69v-5.989h3.69c1.95 0 3.05 1.62 3.05 2.988 0 1.368-1.1 3.001-3.05 3.001zm16.071-2.499c-1.88 0-3.83.838-4.638 2.667l2.312.963c.487-.963 1.406-1.284 2.367-1.284 1.351 0 2.716.81 2.73 2.247v.182c-.474-.265-1.476-.67-2.716-.67-2.493 0-5.013 1.368-5.013 3.923 0 2.331 2.033 3.839 4.317 3.839 1.741 0 2.716-.782 3.314-1.703h.084v1.354h2.507v-6.687c.013-3.1-2.298-4.83-5.264-4.83zm-.321 9.563c-.849 0-2.033-.433-2.033-1.48 0-1.34 1.476-1.856 2.757-1.856 1.142 0 1.685.251 2.368.586-.195 1.605-1.588 2.75-3.092 2.75zm14.734-9.186l-2.98 7.567h-.084l-3.091-7.567h-2.8l4.638 10.582-2.646 5.878h2.715l7.144-16.46h-2.896zm-23.396 11.169h2.604V24.43h-2.604v17.45z"/></mask><path d="M94.916 30.363c-3.273 0-5.947 2.5-5.947 5.933 0 3.42 2.674 5.934 5.947 5.934 3.272 0 5.946-2.513 5.946-5.934 0-3.434-2.674-5.933-5.946-5.933zm0 9.535c-1.797 0-3.343-1.48-3.343-3.602 0-2.136 1.546-3.601 3.343-3.601 1.796 0 3.342 1.465 3.342 3.601 0 2.122-1.56 3.602-3.342 3.602zm-12.98-9.535c-3.272 0-5.946 2.5-5.946 5.933 0 3.42 2.674 5.934 5.947 5.934 3.272 0 5.946-2.513 5.946-5.934 0-3.434-2.674-5.933-5.946-5.933zm0 9.535c-1.796 0-3.342-1.48-3.342-3.602 0-2.136 1.546-3.601 3.343-3.601 1.796 0 3.342 1.465 3.342 3.601 0 2.122-1.546 3.602-3.342 3.602zm-15.43-7.706v2.513h6.017c-.181 1.41-.655 2.457-1.365 3.169-.877.88-2.242 1.843-4.637 1.843-3.705 0-6.601-2.988-6.601-6.701 0-3.714 2.896-6.701 6.6-6.701 1.992 0 3.454.781 4.527 1.8l1.768-1.772c-1.504-1.438-3.495-2.541-6.308-2.541-5.07 0-9.33 4.132-9.33 9.228 0 5.081 4.26 9.227 9.33 9.227 2.743 0 4.804-.893 6.42-2.582 1.657-1.661 2.172-4.007 2.172-5.891 0-.587-.042-1.131-.14-1.578h-8.452v-.014zm63.099 1.955c-.487-1.327-1.991-3.784-5.069-3.784-3.05 0-5.584 2.401-5.584 5.933 0 3.323 2.507 5.934 5.877 5.934 2.715 0 4.289-1.662 4.929-2.625l-2.019-1.354c-.668.991-1.587 1.647-2.91 1.647-1.323 0-2.27-.614-2.869-1.8l7.924-3.281-.279-.67zm-8.077 1.982c-.069-2.29 1.769-3.462 3.092-3.462 1.03 0 1.908.516 2.2 1.256l-5.292 2.206zm-6.434 5.752h2.605V24.43h-2.605v17.45zm-4.261-10.192h-.097c-.585-.698-1.699-1.326-3.12-1.326-2.966 0-5.682 2.61-5.682 5.961 0 3.323 2.716 5.92 5.682 5.92 1.407 0 2.535-.629 3.12-1.355h.083v.852c0 2.276-1.211 3.49-3.161 3.49-1.588 0-2.576-1.145-2.98-2.108l-2.27.95c.654 1.577 2.381 3.503 5.25 3.503 3.05 0 5.626-1.8 5.626-6.184V30.726h-2.465v.963h.014zm-2.994 8.21c-1.796 0-3.3-1.508-3.3-3.575 0-2.094 1.504-3.615 3.3-3.615 1.769 0 3.161 1.535 3.161 3.615.014 2.067-1.379 3.574-3.161 3.574zm33.965-15.469h-6.225v17.45h2.605v-6.617h3.634c2.883 0 5.71-2.094 5.71-5.416 0-3.323-2.855-5.417-5.724-5.417zm.056 8.404h-3.69v-5.989h3.69c1.95 0 3.05 1.62 3.05 2.988 0 1.368-1.1 3.001-3.05 3.001zm16.071-2.499c-1.88 0-3.83.838-4.638 2.667l2.312.963c.487-.963 1.406-1.284 2.367-1.284 1.351 0 2.716.81 2.73 2.247v.182c-.474-.265-1.476-.67-2.716-.67-2.493 0-5.013 1.368-5.013 3.923 0 2.331 2.033 3.839 4.317 3.839 1.741 0 2.716-.782 3.314-1.703h.084v1.354h2.507v-6.687c.013-3.1-2.298-4.83-5.264-4.83zm-.321 9.563c-.849 0-2.033-.433-2.033-1.48 0-1.34 1.476-1.856 2.757-1.856 1.142 0 1.685.251 2.368.586-.195 1.605-1.588 2.75-3.092 2.75zm14.734-9.186l-2.98 7.567h-.084l-3.091-7.567h-2.8l4.638 10.582-2.646 5.878h2.715l7.144-16.46h-2.896zm-23.396 11.169h2.604V24.43h-2.604v17.45z" fill="#EDEDED" stroke="#EDEDED" stroke-width="2.811" mask="url(#a)"/><path d="M14.448 43.596l.588-.384a.088.088 0 00.103.035m-.691.35l.69-.35m-.69.35c.064.098.15.18.25.242l-.25-.243zm0 0l.59-.383a2.3 2.3 0 01-.382-1.276v-28.68a2.35 2.35 0 01.128-.745h0l.003-.007a.089.089 0 01.023-.037.085.085 0 01.116.001h0l15.652 15.185a.088.088 0 01.027.061m-16.157 15.88l16.157-15.88M15.139 43.248a.09.09 0 00.032-.02s0 0 0 0l15.406-15.444s0 0 0 0a.098.098 0 00.028-.067M15.139 43.248l15.466-15.53m2.089-2.168l-.003-.003-14.659-14.222s0 0 0 0a.091.091 0 01-.012-.117.089.089 0 01.049-.032.086.086 0 01.053.003l18.646 10.237h.001a.092.092 0 01.02.143l-3.979 3.988-.002.002a.081.081 0 01-.114.001zm11.567-.022h0a2.318 2.318 0 011.222 2.068 2.32 2.32 0 01-1.222 2.067s0 0 0 0L39.64 32.2s0 0 0 0a.089.089 0 01-.104-.014s0 0 0 0l-4.578-4.443s0 0 0 0a.088.088 0 01-.02-.097l-.646-.263.646.263a.088.088 0 01.018-.029s0 0 0 0l4.593-4.604s0 0 0 0a.089.089 0 01.105-.016s0 0 0 0l4.607 2.531zm-11.417 4.325s0 0 0 0l3.916 3.797.002.002a.087.087 0 01.025.074.087.087 0 01-.043.064h-.002l-17.031 9.35-.008.004-.008.005a.08.08 0 01-.057.01l-.14.688.14-.689a.083.083 0 01-.05-.031.086.086 0 01.01-.113l.006-.006.006-.006 13.116-13.148a.084.084 0 01.118-.001z" fill="#EDEDED" stroke="#EDEDED" stroke-width="1.406"/></svg>