<svg width="81" height="32" fill="none" xmlns="http://www.w3.org/2000/svg"><path fill-rule="evenodd" clip-rule="evenodd" d="M13.931 5.463a7.237 7.237 0 015.078 1.96l3.776-3.731A12.806 12.806 0 0013.93.287c-2.45 0-4.854.673-6.94 1.943a13.143 13.143 0 00-4.88 5.258v.002a12.936 12.936 0 000 11.738v.004a13.143 13.143 0 004.88 5.257 13.346 13.346 0 006.941 1.945v-.005c3.572 0 6.577-1.158 8.766-3.156h.02c2.498-2.276 3.936-5.639 3.936-9.617h-.015a15.462 15.462 0 00-.225-2.668H13.93v5.044h7.16a6.002 6.002 0 01-.91 2.254 6.072 6.072 0 01-1.734 1.717v.016l-.02-.015c-1.187.79-2.716 1.25-4.496 1.25-3.45 0-6.379-2.297-7.417-5.393h-.01a7.733 7.733 0 010-5.004v-.002c1.048-3.098 3.977-5.394 7.418-5.394l.01.002zm24.662 7.383V4.903h4.945a4.066 4.066 0 012.24.65 3.999 3.999 0 011.5 1.771 3.94 3.94 0 01.256 2.296 3.972 3.972 0 01-2.41 2.942 3.963 3.963 0 01-1.586.284h-4.945zm0 12.01v-9.207h4.889c2.015.002 3.709-.645 5.08-1.938a6.565 6.565 0 001.57-2.187 6.5 6.5 0 000-5.25 6.564 6.564 0 00-1.57-2.187A7.113 7.113 0 0046.22 2.6a7.173 7.173 0 00-2.74-.483h-7.846v22.737h2.958zM53.94 21.16c-.171-.332-.26-.7-.257-1.072 0-.845.402-1.553 1.207-2.125.805-.572 1.806-.858 3.005-.858 1.651-.001 2.938.359 3.86 1.08 0 .607-.13 1.207-.383 1.76a4.278 4.278 0 01-1.08 1.448 4.747 4.747 0 01-3.33 1.364 3.64 3.64 0 01-2.297-.76 2.344 2.344 0 01-.725-.837zm8.734-10.643c-1.259-1.154-2.982-1.731-5.17-1.731-2.808 0-4.928 1.015-6.361 3.045l2.607 1.62c.967-1.376 2.274-2.065 3.922-2.065a4.22 4.22 0 012.862 1.063 3.332 3.332 0 011.223 2.589v.667c-1.138-.634-2.585-.951-4.343-.951-2.065-.002-3.713.475-4.945 1.429-1.232.954-1.847 2.234-1.847 3.84a4.82 4.82 0 00.44 2.104 4.86 4.86 0 001.313 1.71c1.166 1.018 2.623 1.525 4.358 1.525 2.036 0 3.665-.889 4.887-2.667h.13v2.16h2.819v-9.59c-.005-2.01-.636-3.594-1.895-4.748zm18.145-1.229l-9.874 22.426H67.89l3.666-7.845L65.06 9.288h3.216l4.696 11.182h.063l4.567-11.182h3.216z" fill="#fff"/></svg>