<svg width="54" height="32" fill="none" xmlns="http://www.w3.org/2000/svg"><path fill-rule="evenodd" clip-rule="evenodd" d="M16.159 31.714c3.569 0 6.863-1.163 9.516-3.126-3.365-3.165-5.463-7.634-5.463-12.588 0-4.954 2.098-9.423 5.463-12.587A15.944 15.944 0 0016.16.286C7.38.286.264 7.32.264 16S7.38 31.714 16.159 31.714zM37.78.286a15.946 15.946 0 00-9.517 3.127C31.63 6.577 33.727 11.046 33.727 16s-2.097 9.423-5.462 12.588a15.945 15.945 0 009.516 3.126c8.779 0 15.895-7.035 15.895-15.714S46.559.286 37.78.286zM32.053 16c0-4.551-1.957-8.65-5.083-11.52-3.128 2.87-5.085 6.969-5.085 11.52 0 4.551 1.957 8.65 5.084 11.52 3.127-2.87 5.084-6.969 5.084-11.52z" fill="#EDEDED"/></svg>