<svg width="58" height="38" fill="none" xmlns="http://www.w3.org/2000/svg"><path d="M54.341 3.286h-50.6v4.52h50.6v-4.52zm-26.881 9.51l-2.63 12.438h-3.183l2.632-12.438h3.183zm13.391 8.032l1.675-4.67.964 4.67h-2.639zm3.553 4.406h2.943l-2.571-12.438H42.06c-.613 0-1.128.36-1.356.913l-4.776 11.525h3.343l.663-1.857h4.083l.386 1.857zm-8.31-4.06c.015-3.283-4.488-3.465-4.458-4.931.01-.446.43-.92 1.35-1.042.456-.06 1.713-.107 3.139.557l.558-2.64a8.503 8.503 0 00-2.978-.549c-3.146 0-5.36 1.69-5.377 4.111-.02 1.791 1.581 2.79 2.785 3.386 1.241.609 1.657 1 1.651 1.545-.008.835-.99 1.204-1.903 1.218-1.602.025-2.53-.437-3.27-.786l-.577 2.726c.745.345 2.118.645 3.538.66 3.345 0 5.533-1.67 5.543-4.255zm-13.181-8.378l-5.157 12.438h-3.364l-2.539-9.926c-.153-.61-.287-.835-.755-1.093-.766-.42-2.03-.813-3.14-1.057l.075-.362h5.416c.69 0 1.31.465 1.468 1.268l1.34 7.198 3.312-8.466h3.344zm31.428 17.397h-50.6v4.521h50.6v-4.521z" fill="#EDEDED"/><path stroke="#EDEDED" stroke-width="1.406" d="M1.632 1.131h54.817v35.737H1.632z"/></svg>